<svg width="1164" height="435" viewBox="0 0 1164 435" fill="none" xmlns="http://www.w3.org/2000/svg">
<defs>
    <linearGradient id="global-flow" x1="0%" y1="0%" x2="200%" y2="200%">
        <stop offset="0%" stop-color="#E5F1FF" />
        <stop offset="12.5%" stop-color="#D9EEF5" />
        <stop offset="25%" stop-color="#E5F1FF" />
        <stop offset="37.5%" stop-color="#D9EEF5" />
        <stop offset="50%" stop-color="#E5F1FF" />

        <stop offset="50%" stop-color="#E5F1FF" />
        <stop offset="62.5%" stop-color="#D9EEF5" />
        <stop offset="75%" stop-color="#E5F1FF" />
        <stop offset="87.5%" stop-color="#D9EEF5" />
        <stop offset="100%" stop-color="#E5F1FF" />

        <animateTransform
            attributeName="gradientTransform"
            type="translate"
            from="0 0"
            to="-1 -1"
            dur="5s"
            repeatCount="indefinite"
        />
    </linearGradient>
</defs>


<path d="M574.585 121.052V180.372C574.585 180.372 575.796 165.676 579.276 160.851C585.555 152.144 592.343 152.144 592.343 152.144C592.343 152.144 942.768 152.014 951.877 151.884C960.986 151.754 965.28 163.465 965.28 163.465L969.574 156.568C969.574 156.568 969.048 150.619 968.283 143.875C967.108 133.518 965.008 121.204 964.109 125.859C961.897 137.31 954.479 137.05 954.479 137.05C954.479 137.05 606.136 136.378 592.343 136.638C586.362 136.751 582.757 135.579 580.487 133.763C578.217 131.947 574.585 121.052 574.585 121.052Z" fill="url(#global-flow)"/>
<path d="M824.975 129.662C833.591 129.662 840.574 136.646 840.574 145.262C840.574 153.877 833.591 160.861 824.975 160.861C816.359 160.861 809.375 153.877 809.375 145.262C809.375 136.646 816.359 129.662 824.975 129.662Z" fill="white"/>
<path d="M830.825 140.749V142.021C830.825 142.137 830.783 142.232 830.698 142.307C830.613 142.382 830.505 142.42 830.373 142.42H828.002C827.786 143.616 827.178 144.589 826.181 145.337C825.183 146.084 823.885 146.541 822.286 146.707C823.856 148.186 826.016 150.413 828.764 153.388C828.896 153.522 828.915 153.662 828.82 153.812C828.745 153.961 828.609 154.036 828.411 154.036H825.659C825.508 154.036 825.391 153.987 825.306 153.887C822.426 150.837 820.083 148.465 818.277 146.77C818.192 146.695 818.15 146.603 818.15 146.496V144.913C818.15 144.804 818.195 144.711 818.285 144.632C818.373 144.553 818.48 144.514 818.601 144.514H820.183C821.425 144.514 822.424 144.335 823.182 143.978C823.939 143.621 824.421 143.101 824.629 142.42H818.601C818.47 142.42 818.362 142.382 818.277 142.307C818.192 142.232 818.15 142.137 818.15 142.021V140.749C818.15 140.633 818.192 140.538 818.277 140.463C818.362 140.388 818.47 140.351 818.601 140.351H824.431C823.895 139.412 822.634 138.942 820.648 138.942H818.601C818.48 138.942 818.373 138.903 818.285 138.824C818.195 138.745 818.15 138.651 818.15 138.543V136.886C818.15 136.77 818.192 136.674 818.277 136.599C818.362 136.524 818.47 136.487 818.601 136.487H830.345C830.477 136.487 830.585 136.524 830.67 136.599C830.754 136.674 830.796 136.77 830.796 136.886V138.157C830.796 138.273 830.754 138.369 830.67 138.444C830.585 138.519 830.477 138.556 830.345 138.556H827.056C827.498 139.063 827.799 139.661 827.959 140.351H830.373C830.505 140.351 830.613 140.388 830.698 140.463C830.783 140.538 830.825 140.633 830.825 140.749Z" fill="#53A548"/>
<path d="M1055.92 81.0083C1064.22 81.0086 1070.97 88.6369 1070.98 98.0318L1071.07 185.537C1071.08 194.932 1064.35 202.559 1056.05 202.559L814.487 202.549C806.189 202.549 799.443 194.92 799.433 185.525L799.339 98.0214C799.329 88.6264 806.058 80.9987 814.356 80.999L1055.92 81.0083Z" fill="url(#global-flow)"/>
<path d="M855.181 183.163C846.772 182.676 834.341 193.157 834.341 193.157L839.826 201.688C839.826 201.688 848.235 202.541 847.503 211.072C847.045 216.421 847.503 239.224 847.503 239.224C847.503 239.224 845.332 245.404 841.675 246.501C838.89 247.336 843.729 252.391 851.77 255.283C854.283 256.187 857.06 256.705 859.934 256.53C872 255.799 873.95 247.39 873.95 247.39L875.573 245.593C875.573 245.593 864.23 243.977 864.352 235.934C864.474 227.89 864.322 211.803 864.322 211.803C864.322 211.803 862.859 205.344 871.756 201.81C878.139 199.274 871.159 191.029 863.6 186.393C860.624 184.566 857.557 183.301 855.181 183.163Z" fill="url(#global-flow)"/>
<rect x="827.983" y="245.592" width="158.425" height="51.1804" rx="7.26365" fill="url(#global-flow)"/>
<path d="M860.137 296.287V296.287C860.137 300.184 863.198 303.394 867.09 303.579L909.176 305.583C913.746 305.801 917.339 309.569 917.339 314.144V314.144" stroke="url(#global-flow)" stroke-width="8.77691"/>
<path d="M857.831 40.4604C861.595 40.4604 864.655 43.9206 864.66 48.1822L864.702 87.0459C864.706 91.3076 861.654 94.7677 857.89 94.7677H816.78C813.016 94.7677 809.956 91.3076 809.952 87.0459L809.909 48.1822C809.905 43.9206 812.957 40.4604 816.721 40.4604H857.831Z" fill="url(#global-flow)"/>
<path d="M1036.44 157.849H1036.47V157.872H1036.38V157.849H1036.41V157.751H1036.37V157.73H1036.39C1036.39 157.73 1036.4 157.729 1036.4 157.728C1036.4 157.727 1036.41 157.726 1036.41 157.723C1036.41 157.721 1036.41 157.718 1036.41 157.714C1036.41 157.711 1036.41 157.706 1036.41 157.7H1036.44V157.849ZM1036.55 157.876C1036.53 157.876 1036.52 157.874 1036.52 157.872C1036.51 157.87 1036.5 157.867 1036.49 157.863C1036.49 157.858 1036.48 157.853 1036.48 157.847C1036.47 157.841 1036.47 157.835 1036.47 157.827C1036.47 157.822 1036.47 157.816 1036.48 157.812C1036.48 157.807 1036.48 157.803 1036.48 157.799C1036.49 157.795 1036.49 157.792 1036.5 157.79C1036.5 157.787 1036.51 157.786 1036.52 157.785C1036.51 157.784 1036.51 157.782 1036.5 157.78C1036.5 157.778 1036.49 157.775 1036.49 157.772C1036.49 157.769 1036.48 157.765 1036.48 157.761C1036.48 157.757 1036.48 157.752 1036.48 157.747C1036.48 157.74 1036.48 157.734 1036.48 157.728C1036.49 157.722 1036.49 157.717 1036.5 157.713C1036.5 157.709 1036.51 157.706 1036.52 157.704C1036.53 157.701 1036.54 157.7 1036.55 157.7C1036.55 157.7 1036.56 157.701 1036.57 157.702C1036.57 157.703 1036.58 157.704 1036.58 157.706C1036.59 157.708 1036.59 157.71 1036.6 157.713C1036.6 157.716 1036.6 157.719 1036.61 157.723C1036.61 157.726 1036.61 157.73 1036.61 157.734C1036.61 157.738 1036.61 157.742 1036.61 157.747C1036.61 157.752 1036.61 157.757 1036.61 157.761C1036.61 157.765 1036.61 157.769 1036.6 157.772C1036.6 157.775 1036.6 157.778 1036.59 157.78C1036.59 157.782 1036.58 157.784 1036.58 157.785C1036.58 157.786 1036.59 157.787 1036.59 157.789C1036.6 157.792 1036.6 157.795 1036.61 157.798C1036.61 157.802 1036.61 157.806 1036.62 157.81C1036.62 157.815 1036.62 157.82 1036.62 157.826C1036.62 157.834 1036.62 157.84 1036.61 157.847C1036.61 157.853 1036.61 157.858 1036.6 157.862C1036.59 157.866 1036.59 157.87 1036.58 157.872C1036.57 157.874 1036.56 157.876 1036.55 157.876ZM1036.55 157.776C1036.56 157.776 1036.57 157.774 1036.58 157.769C1036.59 157.765 1036.59 157.758 1036.59 157.749C1036.59 157.732 1036.58 157.723 1036.55 157.723C1036.52 157.723 1036.5 157.732 1036.5 157.749C1036.5 157.758 1036.51 157.765 1036.51 157.769C1036.52 157.774 1036.53 157.776 1036.55 157.776ZM1036.55 157.853C1036.56 157.853 1036.57 157.85 1036.58 157.845C1036.59 157.84 1036.59 157.833 1036.59 157.823C1036.59 157.814 1036.59 157.807 1036.58 157.802C1036.57 157.798 1036.56 157.795 1036.55 157.795C1036.54 157.795 1036.53 157.796 1036.52 157.797C1036.52 157.798 1036.51 157.8 1036.51 157.802C1036.51 157.805 1036.5 157.807 1036.5 157.811C1036.5 157.814 1036.5 157.818 1036.5 157.823C1036.5 157.833 1036.5 157.84 1036.51 157.845C1036.52 157.85 1036.53 157.853 1036.55 157.853ZM1036.63 157.745C1036.63 157.739 1036.64 157.732 1036.64 157.727C1036.64 157.721 1036.64 157.717 1036.65 157.713C1036.65 157.709 1036.65 157.706 1036.66 157.703C1036.66 157.701 1036.67 157.7 1036.68 157.7C1036.68 157.7 1036.69 157.701 1036.69 157.703C1036.7 157.706 1036.7 157.709 1036.71 157.713C1036.71 157.717 1036.71 157.721 1036.71 157.727C1036.72 157.732 1036.72 157.739 1036.72 157.745C1036.72 157.752 1036.72 157.758 1036.71 157.764C1036.71 157.769 1036.71 157.774 1036.71 157.778C1036.7 157.781 1036.7 157.784 1036.69 157.786C1036.69 157.789 1036.68 157.79 1036.68 157.79C1036.67 157.79 1036.66 157.789 1036.66 157.786C1036.65 157.784 1036.65 157.781 1036.65 157.778C1036.64 157.774 1036.64 157.769 1036.64 157.764C1036.64 157.758 1036.63 157.752 1036.63 157.745ZM1036.79 157.704L1036.69 157.872H1036.66L1036.77 157.704H1036.79ZM1036.66 157.746C1036.66 157.753 1036.66 157.759 1036.66 157.763C1036.67 157.767 1036.67 157.769 1036.68 157.769C1036.68 157.769 1036.69 157.767 1036.69 157.763C1036.69 157.759 1036.69 157.753 1036.69 157.746C1036.69 157.742 1036.69 157.738 1036.69 157.735C1036.69 157.732 1036.69 157.73 1036.69 157.727C1036.69 157.725 1036.69 157.724 1036.68 157.722C1036.68 157.721 1036.68 157.721 1036.68 157.721C1036.67 157.721 1036.67 157.721 1036.67 157.722C1036.67 157.724 1036.66 157.725 1036.66 157.727C1036.66 157.73 1036.66 157.732 1036.66 157.735C1036.66 157.738 1036.66 157.742 1036.66 157.746ZM1036.74 157.831C1036.74 157.825 1036.74 157.818 1036.74 157.813C1036.74 157.807 1036.75 157.803 1036.75 157.799C1036.75 157.795 1036.76 157.792 1036.76 157.789C1036.77 157.787 1036.77 157.786 1036.78 157.786C1036.79 157.786 1036.79 157.787 1036.8 157.789C1036.8 157.792 1036.81 157.795 1036.81 157.799C1036.81 157.803 1036.82 157.807 1036.82 157.813C1036.82 157.818 1036.82 157.824 1036.82 157.831C1036.82 157.838 1036.82 157.844 1036.82 157.85C1036.82 157.855 1036.81 157.86 1036.81 157.864C1036.81 157.867 1036.8 157.87 1036.8 157.872C1036.79 157.875 1036.79 157.876 1036.78 157.876C1036.77 157.876 1036.77 157.875 1036.76 157.872C1036.76 157.87 1036.75 157.867 1036.75 157.864C1036.75 157.86 1036.74 157.855 1036.74 157.85C1036.74 157.844 1036.74 157.838 1036.74 157.831ZM1036.76 157.832C1036.76 157.839 1036.76 157.845 1036.77 157.849C1036.77 157.853 1036.77 157.855 1036.78 157.855C1036.78 157.855 1036.79 157.853 1036.79 157.849C1036.8 157.845 1036.8 157.839 1036.8 157.832C1036.8 157.828 1036.8 157.824 1036.8 157.821C1036.8 157.818 1036.79 157.815 1036.79 157.813C1036.79 157.811 1036.79 157.81 1036.79 157.808C1036.78 157.807 1036.78 157.807 1036.78 157.807C1036.78 157.807 1036.77 157.807 1036.77 157.808C1036.77 157.81 1036.77 157.811 1036.77 157.813C1036.76 157.815 1036.76 157.818 1036.76 157.821C1036.76 157.824 1036.76 157.828 1036.76 157.832Z" fill="url(#global-flow)"/>
<rect x="465.612" y="80.4016" width="109.419" height="110.376" rx="12.2817" stroke="url(#global-flow)" stroke-width="6.06111"/>
<rect x="526.725" y="-0.00927734" width="140.504" height="48.4243" rx="9.17128" fill="url(#global-flow)"/>
<rect x="323.532" y="207.001" width="187.342" height="50.5429" rx="9.8275" fill="url(#global-flow)"/>
<path d="M648.519 48.4149H683.737C683.737 48.4149 675.73 45.5983 671.998 40.9862C668.848 37.0941 666.057 28.605 666.057 28.605L648.519 48.4149Z" fill="url(#global-flow)"/>
<path d="M609.266 48.0482L574.782 48.4151C574.782 48.4151 582.339 51.2821 586.032 56.5775C589.149 61.0461 591.911 70.793 591.911 70.793L609.266 48.0482Z" fill="url(#global-flow)"/>
<rect x="591.29" y="48.0483" width="152.61" height="48.7912" rx="9.17128" fill="url(#global-flow)"/>
<path d="M532.786 44.3799L575.461 48.0293C575.461 48.0293 569.942 48.3851 564.976 50.6833C560.009 52.9815 559.55 53.6692 559.55 53.6692L533.565 82.5324H510.528C520.99 70.4757 527.336 63.1616 536.936 52.0976C537.492 51.4564 538.341 49.4732 537.779 48.3851C537.217 47.2971 532.786 44.3799 532.786 44.3799Z" fill="url(#global-flow)"/>
<path d="M503.008 81.432C508.998 80.5754 513.352 78.505 520.066 71.7104L513.83 81.432H503.008Z" fill="url(#global-flow)"/>
<path d="M545.746 82.5324C539.959 81.0269 540.285 78.5873 541.711 72.6274L532.172 82.5324H545.746Z" fill="url(#global-flow)"/>
<path d="M481.519 212.907H445.958C445.958 212.907 451.406 212.301 455.643 210.486C459.88 208.67 459 208.996 461.052 207.85C470.387 202.635 480.763 188.846 480.763 188.846H501.494C492.864 196.784 483.033 206.942 482.276 207.85C481.519 208.758 480.578 209.426 480.763 211.091C480.948 212.755 481.519 212.907 481.519 212.907Z" fill="url(#global-flow)"/>
<path d="M507.699 189.57C502.757 190.134 499.165 191.498 493.626 195.971L498.771 189.57H507.699Z" fill="url(#global-flow)"/>
<path d="M472.44 188.846C477.214 189.837 476.945 191.444 475.769 195.368L483.638 188.846H472.44Z" fill="url(#global-flow)"/>
<path d="M468.808 148.29H141.49M73.3931 87.6084V92.0518C73.3931 103.45 77.921 114.381 85.9807 122.441L99.2424 135.703C107.302 143.762 118.233 148.29 129.631 148.29H141.49M141.49 148.29L113.655 171.027C105.126 177.994 100.178 188.425 100.178 199.438V199.438" stroke="url(#global-flow)" stroke-width="17.5538"/>
<path d="M98.3619 247.409V247.409C98.3619 257.522 103.757 266.867 112.516 271.924L114.176 272.882C123.961 278.532 129.989 289.074 129.989 300.373V300.373" stroke="url(#global-flow)" stroke-width="17.5538"/>
<path d="M465.782 124.078C460.91 134.829 455.911 138.279 443.083 139.665H465.782V124.078Z" fill="url(#global-flow)"/>
<path d="M465.782 172.048C460.91 161.297 455.911 157.848 443.083 156.462H465.782V172.048Z" fill="url(#global-flow)"/>
<rect x="872.849" y="312.328" width="158.425" height="51.1804" rx="7.26365" fill="url(#global-flow)"/>
<rect x="1001.17" y="232.125" width="162.827" height="51.1804" rx="7.26365" fill="url(#global-flow)"/>
<path d="M136.042 346.376V346.376C136.042 355.772 129.173 363.756 119.882 365.159L74.7266 371.977C65.608 373.353 58.8658 381.19 58.8658 390.412V390.412" stroke="url(#global-flow)" stroke-width="17.5538"/>
<path d="M971.967 314.9V314.9C971.967 309.719 976.168 305.518 981.349 305.518H1052.92C1057.39 305.518 1061.77 304.343 1065.64 302.112L1065.9 301.962C1073.6 297.514 1078.35 289.294 1078.35 280.398V280.398" stroke="url(#global-flow)" stroke-width="8.77691"/>
</svg>