<svg width="99" height="98" viewBox="0 0 99 98" fill="none" xmlns="http://www.w3.org/2000/svg">
<path d="M54.1808 89.4485C45.9134 90.4717 37.531 88.9361 30.1632 85.0485C22.7954 81.161 16.7963 75.1083 12.9744 67.7062C9.15254 60.3041 7.69152 51.9084 8.78826 43.6504C9.885 35.3923 13.4868 27.669 19.1082 21.521C24.7297 15.3731 32.1006 11.0961 40.2277 9.26639C48.3548 7.43668 56.8475 8.14221 64.5612 11.2879C72.275 14.4336 78.8391 19.8683 83.369 26.8595C87.899 33.8508 90.1769 42.0626 89.8959 50.3884M49.1778 24.5656V49.0112L55.5418 52.1933M57.3264 73.4569L73.6235 57.1598M73.6235 57.1598L89.9206 73.4569M73.6235 57.1598V89.754" stroke="white" stroke-width="7.82261" stroke-linecap="round" stroke-linejoin="round"/>
</svg>
