<svg width="152" height="152" viewBox="0 0 152 152" fill="none" xmlns="http://www.w3.org/2000/svg">
<path d="M110.496 116.913H117.371M76.122 116.913H82.9969M41.7475 116.913H48.6224M7.37305 130.663C7.37305 134.31 8.82168 137.807 11.4003 140.386C13.9789 142.964 17.4762 144.413 21.1228 144.413H131.121C134.768 144.413 138.265 142.964 140.844 140.386C143.422 137.807 144.871 134.31 144.871 130.663V48.1644L96.7467 82.5389V48.1644L48.6224 82.5389V20.6648C48.6224 17.0182 47.1738 13.5208 44.5952 10.9423C42.0166 8.36367 38.5193 6.91504 34.8726 6.91504H21.1228C17.4762 6.91504 13.9789 8.36367 11.4003 10.9423C8.82168 13.5208 7.37305 17.0182 7.37305 20.6648V130.663Z" stroke="#1A3858" stroke-width="13.7498" stroke-linecap="round" stroke-linejoin="round"/>
</svg>
