<svg width="181" height="221" viewBox="0 0 181 221" fill="none" xmlns="http://www.w3.org/2000/svg">
<path d="M60.6709 110.853L80.6822 130.864L120.705 90.8412M170.733 120.858C170.733 170.886 135.713 195.9 94.0898 210.409C91.9102 211.147 89.5426 211.112 87.386 210.308C45.6624 195.9 10.6426 170.886 10.6426 120.858V50.8182C10.6426 48.1645 11.6967 45.6195 13.5732 43.7431C15.4496 41.8667 17.9946 40.8125 20.6482 40.8125C40.6596 40.8125 65.6737 28.8057 83.0836 13.5971C85.2033 11.7861 87.8998 10.791 90.6879 10.791C93.4759 10.791 96.1724 11.7861 98.2922 13.5971C115.802 28.9058 140.716 40.8125 160.728 40.8125C163.381 40.8125 165.926 41.8667 167.803 43.7431C169.679 45.6195 170.733 48.1645 170.733 50.8182V120.858Z" stroke="white" stroke-width="20.0113" stroke-linecap="round" stroke-linejoin="round"/>
</svg>
