<svg width="98" height="99" viewBox="0 0 98 99" fill="none" xmlns="http://www.w3.org/2000/svg">
<path d="M49.0867 33.222C55.8372 33.222 61.3095 27.7497 61.3095 20.9992C61.3095 14.2487 55.8372 8.77637 49.0867 8.77637C42.3362 8.77637 36.8639 14.2487 36.8639 20.9992C36.8639 27.7497 42.3362 33.222 49.0867 33.222Z" stroke="white" stroke-width="7.82261" stroke-linecap="round" stroke-linejoin="round"/>
<path d="M26.6781 33.222C24.915 33.2403 23.2054 33.83 21.8059 34.9026C20.4064 35.9751 19.3926 37.4727 18.9166 39.1705L8.75129 76.0019C8.44328 77.194 8.40941 78.4403 8.65221 79.6473C8.89502 80.8544 9.40819 81.9907 10.1532 82.9709C10.8982 83.9512 11.8556 84.7499 12.9535 85.307C14.0515 85.8641 15.2614 86.1652 16.4924 86.1876H81.6808C82.9384 86.1871 84.1789 85.8956 85.305 85.3358C86.4312 84.776 87.4125 83.9631 88.1721 82.9608C88.9317 81.9585 89.449 80.794 89.6835 79.5585C89.918 78.3229 89.8633 77.0498 89.5238 75.8389L79.2362 39.3334C78.7875 37.5954 77.7775 36.0541 76.363 34.949C74.9484 33.8439 73.2086 33.2368 71.4136 33.222H26.6781Z" stroke="white" stroke-width="7.82261" stroke-linecap="round" stroke-linejoin="round"/>
</svg>
