<svg version="1.1" id="Layer_1" xmlns="http://www.w3.org/2000/svg" xmlns:xlink="http://www.w3.org/1999/xlink" x="0px" y="0px"
	 width="100%" viewBox="0 0 500 500" enable-background="new 0 0 500 500" xml:space="preserve">
<path fill="#FEFEFE" opacity="1.000000" stroke="none" 
	d="
M288.000000,501.000000 
	C192.000015,501.000000 96.500046,501.000000 1.000051,501.000000 
	C1.000034,334.333405 1.000034,167.666794 1.000017,1.000141 
	C167.666565,1.000094 334.333130,1.000094 500.999756,1.000047 
	C500.999847,167.666519 500.999847,334.333038 500.999939,500.999786 
	C430.166656,501.000000 359.333344,501.000000 288.000000,501.000000 
M160.914978,465.462189 
	C160.615936,465.358856 160.316879,465.255524 159.159164,465.016968 
	C158.513626,465.364471 157.314957,465.697357 157.305313,466.061707 
	C157.156204,471.705078 157.043701,477.357178 157.268158,482.993561 
	C157.298859,483.764740 159.186218,484.462006 161.138031,485.851196 
	C161.138031,481.435364 161.138031,478.567413 161.138031,475.566406 
	C165.495865,478.005585 164.810974,485.582855 172.884186,484.622833 
	C165.586746,478.317566 164.935455,471.914795 172.259155,465.298279 
	C164.474472,464.159149 165.511322,472.043121 160.866486,473.788971 
	C160.866486,470.960114 160.866486,468.473785 160.914978,465.462189 
M206.735458,100.499969 
	C206.738876,154.492050 206.579376,208.484772 206.797592,262.475983 
	C206.970200,305.180786 234.176315,340.959595 275.026062,352.312622 
	C283.011932,354.532074 291.428009,355.203705 299.869781,356.627014 
	C299.979279,354.124268 300.060760,353.130920 300.060791,352.137604 
	C300.063446,271.316010 300.179504,190.494125 300.006836,109.672882 
	C299.918213,68.189552 270.495361,31.015877 230.142288,21.063881 
	C222.678238,19.223076 214.927261,18.545683 206.735229,17.239912 
	C206.735229,45.571140 206.735229,72.535553 206.735458,100.499969 
M315.782257,141.500000 
	C315.782257,212.917877 315.782257,284.335754 315.782257,356.110016 
	C332.226562,356.437073 346.970428,352.639343 360.444977,344.943817 
	C392.827515,326.449646 409.182831,298.132782 409.757019,260.950195 
	C410.135223,236.458832 409.885559,211.956680 409.785156,187.459900 
	C409.764740,182.476929 409.610962,177.415390 408.743744,172.527557 
	C402.053375,134.818542 380.650055,109.316505 344.532166,96.528580 
	C335.490204,93.327171 325.994568,91.644936 315.781952,92.194641 
	C315.781952,108.579987 315.781952,124.539993 315.782257,141.500000 
M186.321365,160.272415 
	C173.933365,121.717850 130.413971,90.298599 97.209869,96.478157 
	C97.209869,98.315613 97.209869,100.269707 97.209869,102.223801 
	C97.209869,153.216705 97.193810,204.209641 97.236038,255.202515 
	C97.240028,260.023071 97.535751,264.847717 97.821922,269.662964 
	C100.062996,307.371948 127.157700,342.114410 166.440948,352.553162 
	C174.185287,354.611084 182.303543,355.261871 190.943924,356.675262 
	C190.943924,353.411072 190.943939,351.454346 190.943924,349.497589 
	C190.943390,297.004883 191.170853,244.510361 190.747620,192.021072 
	C190.664169,181.671982 188.073212,171.343109 186.321365,160.272415 
M141.885468,85.675476 
	C160.408066,78.644211 169.775665,61.205616 164.749924,43.111351 
	C160.072098,26.269707 142.247971,15.151990 125.313110,18.512817 
	C105.541832,22.436552 93.055946,41.021519 97.399414,60.061764 
	C101.893433,79.761986 120.672234,90.869919 141.885468,85.675476 
M110.832016,447.737244 
	C115.449608,447.737244 120.067192,447.737244 125.143097,447.737244 
	C125.143097,437.831665 125.143097,428.302795 125.143097,417.273102 
	C126.826752,419.855713 127.731178,421.141235 128.531967,422.488342 
	C132.949142,429.918762 137.262787,437.412720 141.813599,444.759949 
	C142.634155,446.084747 144.327103,447.571655 145.733902,447.699371 
	C149.982605,448.085144 154.288727,447.838684 158.731995,447.838684 
	C158.731995,428.294464 158.731995,409.246002 158.731995,390.190857 
	C153.558304,390.190857 148.661987,390.190857 143.125885,390.190857 
	C143.125885,399.620087 143.125885,408.755341 143.125885,417.890594 
	C137.179230,409.659851 132.226395,401.249390 127.067451,392.967285 
	C126.243294,391.644196 124.563210,390.149628 123.161873,390.022400 
	C118.911491,389.636505 114.603722,389.882751 110.144585,389.882751 
	C110.027382,390.938141 109.895020,391.565582 109.897179,392.192596 
	C109.960152,410.502930 110.036537,428.813202 110.832016,447.737244 
M368.439117,424.499786 
	C368.439117,432.121124 368.439117,439.742432 368.439117,447.450256 
	C373.834106,447.450256 378.685211,447.450256 383.900818,447.450256 
	C383.900818,441.772522 383.900818,436.495575 383.900818,431.271484 
	C392.264832,430.393433 394.668884,431.685181 398.009613,438.703278 
	C399.079620,440.951080 399.866425,443.357788 401.147125,445.470947 
	C401.784882,446.523193 403.209442,447.680939 404.340576,447.748810 
	C408.722260,448.011719 413.129120,447.855713 419.092529,447.855713 
	C414.642853,440.038910 410.826263,433.334229 406.933289,426.495392 
	C414.005951,421.160339 416.198120,413.288605 413.462219,401.808136 
	C411.987396,395.619385 408.247345,390.958588 402.284393,390.520508 
	C391.147186,389.702271 379.906982,390.285370 368.439270,390.285370 
	C368.439270,401.549408 368.439270,412.524597 368.439117,424.499786 
M297.647888,413.149078 
	C295.543762,413.149078 293.439667,413.149078 291.262726,413.149078 
	C290.840912,417.020294 290.490479,420.236359 290.098602,423.832764 
	C293.274597,423.832764 295.881927,423.832764 298.737732,423.832764 
	C298.737732,428.083954 298.737732,431.997711 298.737732,435.890198 
	C286.944977,437.466003 283.171265,434.322784 283.055603,422.925507 
	C283.018433,419.264069 282.950043,415.592987 283.156830,411.941101 
	C283.605133,404.022491 286.345337,401.367859 294.362061,401.089691 
	C297.513306,400.980347 300.681183,401.192841 303.835236,401.370148 
	C306.402344,401.514465 308.960083,401.824829 311.617798,402.070404 
	C311.328613,398.934723 311.420593,396.359863 310.748627,394.002777 
	C310.353241,392.615784 308.786102,390.584198 307.675293,390.537933 
	C300.246185,390.228516 292.631744,389.392853 285.397400,390.617676 
	C275.918121,392.222656 269.475372,398.443451 268.667694,408.499176 
	C268.086212,415.739197 268.288940,423.111328 268.905548,430.359528 
	C269.557709,438.025970 274.386902,443.209930 281.380341,445.820374 
	C292.056946,449.805725 302.883240,448.374695 313.452942,446.121490 
	C313.452942,434.846710 313.452942,424.119751 313.452942,413.149567 
	C308.242523,413.149567 303.427216,413.149567 297.647888,413.149078 
M344.608704,401.013733 
	C349.222870,401.013733 353.837067,401.013733 358.644135,401.013733 
	C358.644135,397.061096 358.644135,393.632416 358.644135,389.980652 
	C346.903595,389.980652 335.314087,389.980652 323.562836,389.980652 
	C323.562836,409.280762 323.562836,428.330688 323.562836,447.522430 
	C335.402008,447.522430 346.944611,447.522430 358.511475,447.522430 
	C358.511475,443.622253 358.511475,440.060760 358.511475,436.089905 
	C351.924774,436.089905 345.669739,436.089905 339.380493,436.089905 
	C339.380493,431.792969 339.380493,427.925323 339.380493,423.721588 
	C344.360748,423.721588 348.974670,423.721588 353.757172,423.721588 
	C354.066223,420.151489 354.346863,416.909851 354.683136,413.025269 
	C349.254944,413.025269 344.215637,413.025269 339.170227,413.025269 
	C339.170227,408.789185 339.170227,405.170715 339.170227,401.232758 
	C340.750214,401.155304 342.194092,401.084503 344.608704,401.013733 
M238.902161,406.536743 
	C238.902161,404.781464 238.902161,403.026215 238.902161,400.863068 
	C245.766693,400.863068 252.010727,400.863068 258.369324,400.863068 
	C258.369324,397.026947 258.369324,393.615234 258.369324,390.053345 
	C246.540329,390.053345 234.993881,390.053345 223.358856,390.053345 
	C223.358856,409.382233 223.358856,428.414459 223.358856,447.501709 
	C235.195831,447.501709 246.726028,447.501709 258.288666,447.501709 
	C258.288666,443.579346 258.288666,440.013672 258.288666,436.000153 
	C251.692078,436.000153 245.449509,436.000153 239.158966,436.000153 
	C239.158966,431.801331 239.158966,428.061096 239.158966,423.741943 
	C244.116135,423.741943 248.827957,423.741943 253.717972,423.741943 
	C253.957611,419.931213 254.161133,416.695038 254.397354,412.938599 
	C248.886566,412.938599 243.994919,412.938599 238.902618,412.938599 
	C238.902618,410.792725 238.902618,409.144501 238.902161,406.536743 
M182.958344,442.360168 
	C182.958344,444.108948 182.958344,445.857727 182.958344,447.446106 
	C188.579666,447.446106 193.458374,447.446106 198.801941,447.446106 
	C198.801941,431.826508 198.801941,416.602051 198.801941,400.992065 
	C203.696762,400.992065 208.127411,400.992065 212.601608,400.992065 
	C212.601608,397.058136 212.601608,393.534088 212.601608,390.192505 
	C197.823471,390.192505 183.422882,390.192505 169.014191,390.192505 
	C169.014191,393.938812 169.014191,397.362701 169.014191,401.169800 
	C173.712341,401.169800 178.145203,401.169800 182.958221,401.169800 
	C182.958221,414.833832 182.958221,428.113251 182.958344,442.360168 
M84.999786,423.500000 
	C84.999786,431.560883 84.999786,439.621796 84.999786,447.504425 
	C90.548157,447.504425 95.298676,447.504425 100.036720,447.504425 
	C100.036720,428.144897 100.036720,409.121246 100.036720,389.988800 
	C94.940369,389.988800 90.193771,389.988800 84.999786,389.988800 
	C84.999786,400.966553 84.999786,411.733276 84.999786,423.500000 
M141.088623,474.310303 
	C142.296280,476.679199 143.682907,478.976410 144.667099,481.434784 
	C145.950272,484.639923 147.874054,485.812775 151.296829,484.293182 
	C151.296829,477.979858 151.296829,471.695984 151.296829,465.375763 
	C146.403198,463.967957 147.980591,467.631134 147.819717,469.624695 
	C147.623734,472.053528 147.773117,474.510223 147.773117,476.954865 
	C145.115784,474.389679 143.589752,471.844147 142.462280,469.132904 
	C141.087967,465.828003 139.354538,463.753601 135.176758,465.671387 
	C135.176758,471.115784 135.035782,476.598846 135.298096,482.062500 
	C135.349319,483.129425 136.965668,484.121155 137.860107,485.147583 
	C138.358078,484.817017 138.856049,484.486481 139.354019,484.155914 
	C139.354019,480.218109 139.354019,476.280273 139.354019,471.557281 
	C140.216110,472.782471 140.503235,473.190521 141.088623,474.310303 
M108.726852,467.865570 
	C107.854401,466.763733 106.981949,465.661896 106.109497,464.560059 
	C105.784828,464.852142 105.460167,465.144257 105.135498,465.436340 
	C105.135498,471.834381 105.135498,478.232422 105.135498,484.986328 
	C111.339340,484.469330 107.118904,479.189667 109.575409,476.965393 
	C111.331596,476.965393 113.393745,476.965393 115.564415,476.965393 
	C115.738503,479.704865 115.893051,482.136749 116.047600,484.568665 
	C116.492821,484.841766 116.938034,485.114868 117.383255,485.388000 
	C118.163979,484.301819 119.560539,483.247467 119.618591,482.123932 
	C119.867165,477.312134 119.884987,472.470001 119.591446,467.663055 
	C119.527000,466.607788 117.843758,465.651398 116.905991,464.649475 
	C116.514244,464.975311 116.122505,465.301178 115.730759,465.627014 
	C115.730759,467.937073 115.730759,470.247101 115.730759,472.779816 
	C113.395134,472.779816 111.306908,472.779816 108.937401,472.779816 
	C108.862160,471.327576 108.795692,470.044800 108.726852,467.865570 
M240.519714,476.574738 
	C241.803879,476.684448 243.088043,476.794128 244.727951,476.934235 
	C244.727951,478.877411 244.496933,480.567932 244.812775,482.149200 
	C245.008804,483.130493 246.034180,483.946198 246.687286,484.836212 
	C247.275055,484.038025 248.345718,483.255127 248.371582,482.439148 
	C248.529449,477.456451 248.585571,472.459412 248.335876,467.484222 
	C248.285782,466.486115 246.771347,465.561462 245.932083,464.602936 
	C245.581039,464.902649 245.229996,465.202393 244.878967,465.502106 
	C244.750763,467.924377 244.622559,470.346680 244.480118,473.038147 
	C242.621384,473.038147 241.139328,473.071899 239.660049,473.022430 
	C239.019028,473.001007 238.383728,472.807983 237.783905,472.699799 
	C237.041977,465.391357 237.041977,465.391357 233.724274,465.431793 
	C233.724274,470.888824 233.642868,476.354828 233.797119,481.814178 
	C233.825867,482.831818 234.800873,483.822754 235.339172,484.826019 
	C236.043335,483.812653 236.884537,482.866241 237.419693,481.770355 
	C238.235550,480.099640 238.839691,478.325562 240.519714,476.574738 
M346.961914,468.991119 
	C343.811279,462.000763 337.787415,466.286530 333.047546,464.815063 
	C333.047546,471.831726 333.047546,478.207489 333.047546,484.755066 
	C338.799774,485.214264 335.185333,480.095978 337.828064,478.307098 
	C342.722626,476.764587 341.945709,487.270477 348.058746,484.371063 
	C347.066559,481.882935 345.536896,479.602905 345.385529,477.234833 
	C345.230743,474.812439 346.427124,472.303650 346.961914,468.991119 
M184.324112,466.918549 
	C184.317383,471.886932 184.162827,476.862762 184.413620,481.818115 
	C184.472275,482.976837 185.905045,484.065948 186.705597,485.187103 
	C187.114838,484.908478 187.524078,484.629883 187.933319,484.351257 
	C188.106003,482.443329 188.278687,480.535400 188.450851,478.633209 
	C194.487183,476.721802 193.685120,487.379486 200.248215,484.313629 
	C198.962463,482.225403 197.695511,480.167725 196.479111,478.192139 
	C200.115952,472.986816 199.920013,466.675720 195.816589,465.761322 
	C192.219345,464.959656 188.243149,465.858521 184.324112,466.918549 
M315.759338,465.214966 
	C306.392426,464.134735 304.773651,465.533630 304.769684,474.714355 
	C304.769104,476.041901 304.803589,477.370148 304.770874,478.696838 
	C304.674927,482.586853 306.837830,484.559326 310.433960,484.926117 
	C313.771881,485.266571 317.225952,485.317078 319.064026,481.633362 
	C321.122772,477.507233 319.600708,468.299133 315.759338,465.214966 
M296.396484,484.225586 
	C299.636139,481.915222 301.394165,472.912048 299.479156,468.438690 
	C297.990723,464.961823 293.588776,464.038422 286.296967,465.608490 
	C286.296967,472.009949 286.296967,478.372040 286.296967,485.022736 
	C289.680756,484.838959 292.642242,484.678101 296.396484,484.225586 
M225.470261,464.969452 
	C215.280914,464.546509 214.323746,465.466827 214.417252,475.768677 
	C214.432251,477.422180 214.367859,479.149414 214.804474,480.712891 
	C216.301804,486.074707 220.766464,484.876831 224.647629,484.957031 
	C228.836212,485.043579 228.449936,482.098114 228.166153,479.470764 
	C228.014252,478.064453 227.221619,476.727295 226.718140,475.358948 
	C226.039734,476.566345 225.398407,477.796692 224.670715,478.973633 
	C224.129242,479.849365 223.477814,481.349640 222.871918,481.351349 
	C221.541321,481.355072 219.126633,480.712158 219.055893,480.109924 
	C218.658844,476.729584 218.437943,473.208252 219.071045,469.910583 
	C219.232056,469.071869 222.710266,468.505005 224.679138,468.459839 
	C228.043884,468.382690 228.628662,467.519104 225.470261,464.969452 
M381.918365,476.453400 
	C381.918365,479.216095 381.918365,481.978821 381.918365,485.051117 
	C388.411743,484.414398 384.308655,479.209229 386.581146,476.930389 
	C388.446594,476.930389 390.499603,476.930389 392.712952,476.930389 
	C392.867249,479.661682 393.004974,482.099426 393.142700,484.537170 
	C393.568268,484.802032 393.993835,485.066895 394.419403,485.331757 
	C395.226471,484.286835 396.673096,483.275696 396.730408,482.191162 
	C396.984772,477.376770 397.004791,472.531494 396.714752,467.721161 
	C396.649902,466.645874 394.992065,465.666656 394.067627,464.643188 
	C393.731354,464.975494 393.395081,465.307800 393.058838,465.640076 
	C392.943573,468.054688 392.828308,470.469269 392.723877,472.656982 
	C390.143494,472.656982 388.065491,472.656982 386.013885,472.656982 
	C385.665192,465.301941 385.665192,465.301941 381.918365,465.572693 
	C381.918365,468.856964 381.918365,472.166534 381.918365,476.453400 
M371.250305,468.249023 
	C372.407471,468.353333 373.604034,468.669830 374.703918,468.465668 
	C375.197815,468.373962 375.708832,467.270599 375.807861,466.569183 
	C375.867371,466.147675 375.250732,465.419281 374.762665,465.164215 
	C369.202942,462.259247 362.912231,465.991455 362.818207,472.213318 
	C362.798096,473.543671 362.812469,474.874634 362.815674,476.205292 
	C362.834167,483.910919 367.062469,487.065186 374.330688,484.751465 
	C378.446747,483.441193 376.185394,480.002441 376.460999,477.524139 
	C376.543823,476.779572 374.852325,475.837677 373.365936,474.397247 
	C372.986938,477.617737 372.780212,479.374512 372.386108,482.723236 
	C369.996979,481.098389 367.482422,480.333130 366.973419,478.870148 
	C365.242493,473.894867 366.931122,469.495270 371.250305,468.249023 
M95.019157,474.560120 
	C95.019157,472.624786 95.019157,470.689484 95.019157,468.786377 
	C96.021545,468.574127 96.530373,468.553711 96.959816,468.358582 
	C98.122337,467.830322 99.251144,467.227905 100.393318,466.654816 
	C99.261635,466.106506 98.153030,465.151154 96.993973,465.085419 
	C93.368454,464.879761 89.723892,465.009918 86.086708,465.009918 
	C85.871368,465.559082 85.656029,466.108276 85.440689,466.657440 
	C87.162056,467.504456 88.883415,468.351471 91.088783,469.436646 
	C91.088783,473.235657 90.916534,477.555328 91.201569,481.844604 
	C91.279533,483.017883 92.729698,484.100006 93.550148,485.223969 
	C94.039780,484.952789 94.529404,484.681610 95.019035,484.410431 
	C95.019035,481.445831 95.019035,478.481262 95.019157,474.560120 
M256.703827,464.993256 
	C255.434158,465.553467 254.164490,466.113678 252.894852,466.673889 
	C254.544998,467.572327 256.195129,468.470764 258.175293,469.548859 
	C258.175293,473.552246 257.998749,477.855377 258.299896,482.124847 
	C258.374817,483.187347 259.993225,484.140961 260.902191,485.144592 
	C261.315735,484.817749 261.729279,484.490906 262.142822,484.164062 
	C262.142822,479.075775 262.142822,473.987457 262.142822,469.307617 
	C264.367401,468.382416 266.174835,467.630707 267.982300,466.878998 
	C267.799957,466.250336 267.617645,465.621643 267.435303,464.992981 
	C264.168518,464.992981 260.901733,464.992981 256.703827,464.993256 
M415.853271,467.142883 
	C415.228607,466.436554 414.629242,465.146851 413.975189,465.118469 
	C409.722565,464.934143 405.458130,465.023865 401.197540,465.023865 
	C401.008759,465.636597 400.819977,466.249329 400.631195,466.862061 
	C402.422668,467.617249 404.214172,468.372437 406.555481,469.359406 
	C406.555481,472.141754 406.556000,475.254120 406.555359,478.366516 
	C406.554077,484.557007 406.553833,484.557007 410.355560,484.095673 
	C410.355560,479.074432 410.355560,473.995056 410.355560,468.810608 
	C412.335083,468.476471 413.930878,468.207092 415.853271,467.142883 
M353.360474,482.844635 
	C354.315033,483.658325 355.269592,484.471985 357.050171,485.989746 
	C357.050171,478.093353 357.050171,471.709534 357.050171,465.325684 
	C356.596222,465.071136 356.142273,464.816559 355.688324,464.562012 
	C354.906433,465.726532 353.518890,466.856445 353.449982,468.061768 
	C353.185760,472.682983 353.344879,477.328430 353.360474,482.844635 
M209.037201,472.567688 
	C209.037201,470.128204 209.037201,467.688751 209.037201,465.249268 
	C208.547791,464.990875 208.058380,464.732483 207.568970,464.474091 
	C206.752869,465.518768 205.291199,466.528290 205.232071,467.614197 
	C204.972137,472.387238 204.958603,477.191406 205.232330,481.962738 
	C205.297165,483.092804 206.819397,484.139282 207.671234,485.224182 
	C208.126495,484.934967 208.581741,484.645721 209.037003,484.356476 
	C209.037003,480.748840 209.037003,477.141205 209.037201,472.567688 
M125.572060,468.890961 
	C125.573151,473.215759 125.439148,477.547638 125.666122,481.860535 
	C125.726204,483.002106 126.897942,484.085205 127.559235,485.195129 
	C128.026077,484.959564 128.492935,484.723969 128.959778,484.488373 
	C128.959778,478.087646 128.959778,471.686920 128.959778,465.286163 
	C128.477066,465.063629 127.994347,464.841064 127.511627,464.618500 
	C126.865372,465.740051 126.219124,466.861572 125.572060,468.890961 
z"/>
<path fill="#F6931E" opacity="1.000000" stroke="none" 
	d="
M206.735352,99.999969 
	C206.735229,72.535553 206.735229,45.571140 206.735229,17.239912 
	C214.927261,18.545683 222.678238,19.223076 230.142288,21.063881 
	C270.495361,31.015877 299.918213,68.189552 300.006836,109.672882 
	C300.179504,190.494125 300.063446,271.316010 300.060791,352.137604 
	C300.060760,353.130920 299.979279,354.124268 299.869781,356.627014 
	C291.428009,355.203705 283.011932,354.532074 275.026062,352.312622 
	C234.176315,340.959595 206.970200,305.180786 206.797592,262.475983 
	C206.579376,208.484772 206.738876,154.492050 206.735352,99.999969 
z"/>
<path fill="#A78F77" opacity="1.000000" stroke="none" 
	d="
M315.782104,141.000000 
	C315.781952,124.539993 315.781952,108.579987 315.781952,92.194641 
	C325.994568,91.644936 335.490204,93.327171 344.532166,96.528580 
	C380.650055,109.316505 402.053375,134.818542 408.743744,172.527557 
	C409.610962,177.415390 409.764740,182.476929 409.785156,187.459900 
	C409.885559,211.956680 410.135223,236.458832 409.757019,260.950195 
	C409.182831,298.132782 392.827515,326.449646 360.444977,344.943817 
	C346.970428,352.639343 332.226562,356.437073 315.782257,356.110016 
	C315.782257,284.335754 315.782257,212.917877 315.782104,141.000000 
z"/>
<path fill="#A89078" opacity="1.000000" stroke="none" 
	d="
M186.480026,160.638672 
	C188.073212,171.343109 190.664169,181.671982 190.747620,192.021072 
	C191.170853,244.510361 190.943390,297.004883 190.943924,349.497589 
	C190.943939,351.454346 190.943924,353.411072 190.943924,356.675262 
	C182.303543,355.261871 174.185287,354.611084 166.440948,352.553162 
	C127.157700,342.114410 100.062996,307.371948 97.821922,269.662964 
	C97.535751,264.847717 97.240028,260.023071 97.236038,255.202515 
	C97.193810,204.209641 97.209869,153.216705 97.209869,102.223801 
	C97.209869,100.269707 97.209869,98.315613 97.209869,96.478157 
	C130.413971,90.298599 173.933365,121.717850 186.480026,160.638672 
z"/>
<path fill="#F6931F" opacity="1.000000" stroke="none" 
	d="
M141.492584,85.793304 
	C120.672234,90.869919 101.893433,79.761986 97.399414,60.061764 
	C93.055946,41.021519 105.541832,22.436552 125.313110,18.512817 
	C142.247971,15.151990 160.072098,26.269707 164.749924,43.111351 
	C169.775665,61.205616 160.408066,78.644211 141.492584,85.793304 
z"/>
<path fill="#213665" opacity="1.000000" stroke="none" 
	d="
M110.471390,447.430359 
	C110.036537,428.813202 109.960152,410.502930 109.897179,392.192596 
	C109.895020,391.565582 110.027382,390.938141 110.144585,389.882751 
	C114.603722,389.882751 118.911491,389.636505 123.161873,390.022400 
	C124.563210,390.149628 126.243294,391.644196 127.067451,392.967285 
	C132.226395,401.249390 137.179230,409.659851 143.125885,417.890594 
	C143.125885,408.755341 143.125885,399.620087 143.125885,390.190857 
	C148.661987,390.190857 153.558304,390.190857 158.731995,390.190857 
	C158.731995,409.246002 158.731995,428.294464 158.731995,447.838684 
	C154.288727,447.838684 149.982605,448.085144 145.733902,447.699371 
	C144.327103,447.571655 142.634155,446.084747 141.813599,444.759949 
	C137.262787,437.412720 132.949142,429.918762 128.531967,422.488342 
	C127.731178,421.141235 126.826752,419.855713 125.143097,417.273102 
	C125.143097,428.302795 125.143097,437.831665 125.143097,447.737244 
	C120.067192,447.737244 115.449608,447.737244 110.471390,447.430359 
z"/>
<path fill="#263B68" opacity="1.000000" stroke="none" 
	d="
M368.439209,423.999786 
	C368.439270,412.524597 368.439270,401.549408 368.439270,390.285370 
	C379.906982,390.285370 391.147186,389.702271 402.284393,390.520508 
	C408.247345,390.958588 411.987396,395.619385 413.462219,401.808136 
	C416.198120,413.288605 414.005951,421.160339 406.933289,426.495392 
	C410.826263,433.334229 414.642853,440.038910 419.092529,447.855713 
	C413.129120,447.855713 408.722260,448.011719 404.340576,447.748810 
	C403.209442,447.680939 401.784882,446.523193 401.147125,445.470947 
	C399.866425,443.357788 399.079620,440.951080 398.009613,438.703278 
	C394.668884,431.685181 392.264832,430.393433 383.900818,431.271484 
	C383.900818,436.495575 383.900818,441.772522 383.900818,447.450256 
	C378.685211,447.450256 373.834106,447.450256 368.439117,447.450256 
	C368.439117,439.742432 368.439117,432.121124 368.439209,423.999786 
M394.823486,400.219299 
	C391.251068,400.219299 387.678680,400.219299 384.012939,400.219299 
	C384.012939,407.126251 384.012939,413.357758 384.012939,420.273651 
	C386.823669,420.273651 389.426056,420.268707 392.028442,420.274811 
	C395.954010,420.284027 399.266174,419.476776 400.232727,414.876373 
	C401.777740,407.522583 400.230072,402.452667 394.823486,400.219299 
z"/>
<path fill="#233967" opacity="1.000000" stroke="none" 
	d="
M298.129883,413.149323 
	C303.427216,413.149567 308.242523,413.149567 313.452942,413.149567 
	C313.452942,424.119751 313.452942,434.846710 313.452942,446.121490 
	C302.883240,448.374695 292.056946,449.805725 281.380341,445.820374 
	C274.386902,443.209930 269.557709,438.025970 268.905548,430.359528 
	C268.288940,423.111328 268.086212,415.739197 268.667694,408.499176 
	C269.475372,398.443451 275.918121,392.222656 285.397400,390.617676 
	C292.631744,389.392853 300.246185,390.228516 307.675293,390.537933 
	C308.786102,390.584198 310.353241,392.615784 310.748627,394.002777 
	C311.420593,396.359863 311.328613,398.934723 311.617798,402.070404 
	C308.960083,401.824829 306.402344,401.514465 303.835236,401.370148 
	C300.681183,401.192841 297.513306,400.980347 294.362061,401.089691 
	C286.345337,401.367859 283.605133,404.022491 283.156830,411.941101 
	C282.950043,415.592987 283.018433,419.264069 283.055603,422.925507 
	C283.171265,434.322784 286.944977,437.466003 298.737732,435.890198 
	C298.737732,431.997711 298.737732,428.083954 298.737732,423.832764 
	C295.881927,423.832764 293.274597,423.832764 290.098602,423.832764 
	C290.490479,420.236359 290.840912,417.020294 291.262726,413.149078 
	C293.439667,413.149078 295.543762,413.149078 298.129883,413.149323 
z"/>
<path fill="#253A68" opacity="1.000000" stroke="none" 
	d="
M344.123352,401.013733 
	C342.194092,401.084503 340.750214,401.155304 339.170227,401.232758 
	C339.170227,405.170715 339.170227,408.789185 339.170227,413.025269 
	C344.215637,413.025269 349.254944,413.025269 354.683136,413.025269 
	C354.346863,416.909851 354.066223,420.151489 353.757172,423.721588 
	C348.974670,423.721588 344.360748,423.721588 339.380493,423.721588 
	C339.380493,427.925323 339.380493,431.792969 339.380493,436.089905 
	C345.669739,436.089905 351.924774,436.089905 358.511475,436.089905 
	C358.511475,440.060760 358.511475,443.622253 358.511475,447.522430 
	C346.944611,447.522430 335.402008,447.522430 323.562836,447.522430 
	C323.562836,428.330688 323.562836,409.280762 323.562836,389.980652 
	C335.314087,389.980652 346.903595,389.980652 358.644135,389.980652 
	C358.644135,393.632416 358.644135,397.061096 358.644135,401.013733 
	C353.837067,401.013733 349.222870,401.013733 344.123352,401.013733 
z"/>
<path fill="#243967" opacity="1.000000" stroke="none" 
	d="
M238.902390,407.016510 
	C238.902618,409.144501 238.902618,410.792725 238.902618,412.938599 
	C243.994919,412.938599 248.886566,412.938599 254.397354,412.938599 
	C254.161133,416.695038 253.957611,419.931213 253.717972,423.741943 
	C248.827957,423.741943 244.116135,423.741943 239.158966,423.741943 
	C239.158966,428.061096 239.158966,431.801331 239.158966,436.000153 
	C245.449509,436.000153 251.692078,436.000153 258.288666,436.000153 
	C258.288666,440.013672 258.288666,443.579346 258.288666,447.501709 
	C246.726028,447.501709 235.195831,447.501709 223.358856,447.501709 
	C223.358856,428.414459 223.358856,409.382233 223.358856,390.053345 
	C234.993881,390.053345 246.540329,390.053345 258.369324,390.053345 
	C258.369324,393.615234 258.369324,397.026947 258.369324,400.863068 
	C252.010727,400.863068 245.766693,400.863068 238.902161,400.863068 
	C238.902161,403.026215 238.902161,404.781464 238.902390,407.016510 
z"/>
<path fill="#223866" opacity="1.000000" stroke="none" 
	d="
M182.958282,441.876404 
	C182.958221,428.113251 182.958221,414.833832 182.958221,401.169800 
	C178.145203,401.169800 173.712341,401.169800 169.014191,401.169800 
	C169.014191,397.362701 169.014191,393.938812 169.014191,390.192505 
	C183.422882,390.192505 197.823471,390.192505 212.601608,390.192505 
	C212.601608,393.534088 212.601608,397.058136 212.601608,400.992065 
	C208.127411,400.992065 203.696762,400.992065 198.801941,400.992065 
	C198.801941,416.602051 198.801941,431.826508 198.801941,447.446106 
	C193.458374,447.446106 188.579666,447.446106 182.958344,447.446106 
	C182.958344,445.857727 182.958344,444.108948 182.958282,441.876404 
z"/>
<path fill="#1F3564" opacity="1.000000" stroke="none" 
	d="
M84.999786,423.000000 
	C84.999786,411.733276 84.999786,400.966553 84.999786,389.988800 
	C90.193771,389.988800 94.940369,389.988800 100.036720,389.988800 
	C100.036720,409.121246 100.036720,428.144897 100.036720,447.504425 
	C95.298676,447.504425 90.548157,447.504425 84.999786,447.504425 
	C84.999786,439.621796 84.999786,431.560883 84.999786,423.000000 
z"/>
<path fill="#2D426E" opacity="1.000000" stroke="none" 
	d="
M140.939499,473.954468 
	C140.503235,473.190521 140.216110,472.782471 139.354019,471.557281 
	C139.354019,476.280273 139.354019,480.218109 139.354019,484.155914 
	C138.856049,484.486481 138.358078,484.817017 137.860107,485.147583 
	C136.965668,484.121155 135.349319,483.129425 135.298096,482.062500 
	C135.035782,476.598846 135.176758,471.115784 135.176758,465.671387 
	C139.354538,463.753601 141.087967,465.828003 142.462280,469.132904 
	C143.589752,471.844147 145.115784,474.389679 147.773117,476.954865 
	C147.773117,474.510223 147.623734,472.053528 147.819717,469.624695 
	C147.980591,467.631134 146.403198,463.967957 151.296829,465.375763 
	C151.296829,471.695984 151.296829,477.979858 151.296829,484.293182 
	C147.874054,485.812775 145.950272,484.639923 144.667099,481.434784 
	C143.682907,478.976410 142.296280,476.679199 140.939499,473.954468 
z"/>
<path fill="#384B75" opacity="1.000000" stroke="none" 
	d="
M108.728043,468.313782 
	C108.795692,470.044800 108.862160,471.327576 108.937401,472.779816 
	C111.306908,472.779816 113.395134,472.779816 115.730759,472.779816 
	C115.730759,470.247101 115.730759,467.937073 115.730759,465.627014 
	C116.122505,465.301178 116.514244,464.975311 116.905991,464.649475 
	C117.843758,465.651398 119.527000,466.607788 119.591446,467.663055 
	C119.884987,472.470001 119.867165,477.312134 119.618591,482.123932 
	C119.560539,483.247467 118.163979,484.301819 117.383255,485.388000 
	C116.938034,485.114868 116.492821,484.841766 116.047600,484.568665 
	C115.893051,482.136749 115.738503,479.704865 115.564415,476.965393 
	C113.393745,476.965393 111.331596,476.965393 109.575409,476.965393 
	C107.118904,479.189667 111.339340,484.469330 105.135498,484.986328 
	C105.135498,478.232422 105.135498,471.834381 105.135498,465.436340 
	C105.460167,465.144257 105.784828,464.852142 106.109497,464.560059 
	C106.981949,465.661896 107.854401,466.763733 108.728043,468.313782 
z"/>
<path fill="#273C6A" opacity="1.000000" stroke="none" 
	d="
M240.026718,476.585083 
	C238.839691,478.325562 238.235550,480.099640 237.419693,481.770355 
	C236.884537,482.866241 236.043335,483.812653 235.339172,484.826019 
	C234.800873,483.822754 233.825867,482.831818 233.797119,481.814178 
	C233.642868,476.354828 233.724274,470.888824 233.724274,465.431793 
	C237.041977,465.391357 237.041977,465.391357 237.783905,472.699799 
	C238.383728,472.807983 239.019028,473.001007 239.660049,473.022430 
	C241.139328,473.071899 242.621384,473.038147 244.480118,473.038147 
	C244.622559,470.346680 244.750763,467.924377 244.878967,465.502106 
	C245.229996,465.202393 245.581039,464.902649 245.932083,464.602936 
	C246.771347,465.561462 248.285782,466.486115 248.335876,467.484222 
	C248.585571,472.459412 248.529449,477.456451 248.371582,482.439148 
	C248.345718,483.255127 247.275055,484.038025 246.687286,484.836212 
	C246.034180,483.946198 245.008804,483.130493 244.812775,482.149200 
	C244.496933,480.567932 244.727951,478.877411 244.727951,476.934235 
	C243.088043,476.794128 241.803879,476.684448 240.026718,476.585083 
z"/>
<path fill="#2B3F6C" opacity="1.000000" stroke="none" 
	d="
M346.996948,469.411926 
	C346.427124,472.303650 345.230743,474.812439 345.385529,477.234833 
	C345.536896,479.602905 347.066559,481.882935 348.058746,484.371063 
	C341.945709,487.270477 342.722626,476.764587 337.828064,478.307098 
	C335.185333,480.095978 338.799774,485.214264 333.047546,484.755066 
	C333.047546,478.207489 333.047546,471.831726 333.047546,464.815063 
	C337.787415,466.286530 343.811279,462.000763 346.996948,469.411926 
M337.042511,474.781494 
	C338.989258,474.424774 341.095703,474.384766 342.791351,473.529968 
	C343.342957,473.251831 343.357056,470.014740 342.682983,469.580292 
	C341.136444,468.583618 339.015076,468.478851 336.546509,467.868408 
	C336.546509,470.598907 336.546509,472.355408 337.042511,474.781494 
z"/>
<path fill="#304470" opacity="1.000000" stroke="none" 
	d="
M184.379211,466.462402 
	C188.243149,465.858521 192.219345,464.959656 195.816589,465.761322 
	C199.920013,466.675720 200.115952,472.986816 196.479111,478.192139 
	C197.695511,480.167725 198.962463,482.225403 200.248215,484.313629 
	C193.685120,487.379486 194.487183,476.721802 188.450851,478.633209 
	C188.278687,480.535400 188.106003,482.443329 187.933319,484.351257 
	C187.524078,484.629883 187.114838,484.908478 186.705597,485.187103 
	C185.905045,484.065948 184.472275,482.976837 184.413620,481.818115 
	C184.162827,476.862762 184.317383,471.886932 184.379211,466.462402 
M188.114609,470.825623 
	C188.114609,472.089325 188.114609,473.353027 188.114609,476.054504 
	C190.983734,474.765564 193.123367,474.109741 194.804153,472.844391 
	C195.250046,472.508728 194.321915,469.153015 193.962250,469.141541 
	C192.032104,469.079987 190.082245,469.636932 188.114609,470.825623 
z"/>
<path fill="#2F436F" opacity="1.000000" stroke="none" 
	d="
M316.129517,465.401245 
	C319.600708,468.299133 321.122772,477.507233 319.064026,481.633362 
	C317.225952,485.317078 313.771881,485.266571 310.433960,484.926117 
	C306.837830,484.559326 304.674927,482.586853 304.770874,478.696838 
	C304.803589,477.370148 304.769104,476.041901 304.769684,474.714355 
	C304.773651,465.533630 306.392426,464.134735 316.129517,465.401245 
M308.877716,479.859619 
	C310.595245,480.330750 312.423370,481.361725 313.986816,481.052917 
	C314.857544,480.880890 315.581970,478.530273 315.840698,477.067413 
	C316.153625,475.298187 316.409882,473.214478 315.751404,471.666351 
	C315.132782,470.211792 313.413391,468.635437 311.941498,468.354828 
	C311.058167,468.186401 309.027588,470.247406 308.739899,471.572815 
	C308.225372,473.943573 308.638153,476.515656 308.877716,479.859619 
z"/>
<path fill="#2F436E" opacity="1.000000" stroke="none" 
	d="
M296.000122,484.371399 
	C292.642242,484.678101 289.680756,484.838959 286.296967,485.022736 
	C286.296967,478.372040 286.296967,472.009949 286.296967,465.608490 
	C293.588776,464.038422 297.990723,464.961823 299.479156,468.438690 
	C301.394165,472.912048 299.636139,481.915222 296.000122,484.371399 
M293.201172,481.227631 
	C298.612579,478.955658 295.225922,474.339050 295.633698,470.852905 
	C295.731415,470.017303 292.548401,468.798004 289.832367,467.106201 
	C289.832367,472.220001 289.685211,475.679535 289.943542,479.108582 
	C290.002655,479.892944 291.459656,480.572021 293.201172,481.227631 
z"/>
<path fill="#2F436E" opacity="1.000000" stroke="none" 
	d="
M225.846313,465.011353 
	C228.628662,467.519104 228.043884,468.382690 224.679138,468.459839 
	C222.710266,468.505005 219.232056,469.071869 219.071045,469.910583 
	C218.437943,473.208252 218.658844,476.729584 219.055893,480.109924 
	C219.126633,480.712158 221.541321,481.355072 222.871918,481.351349 
	C223.477814,481.349640 224.129242,479.849365 224.670715,478.973633 
	C225.398407,477.796692 226.039734,476.566345 226.718140,475.358948 
	C227.221619,476.727295 228.014252,478.064453 228.166153,479.470764 
	C228.449936,482.098114 228.836212,485.043579 224.647629,484.957031 
	C220.766464,484.876831 216.301804,486.074707 214.804474,480.712891 
	C214.367859,479.149414 214.432251,477.422180 214.417252,475.768677 
	C214.323746,465.466827 215.280914,464.546509 225.846313,465.011353 
z"/>
<path fill="#344772" opacity="1.000000" stroke="none" 
	d="
M381.918365,475.964752 
	C381.918365,472.166534 381.918365,468.856964 381.918365,465.572693 
	C385.665192,465.301941 385.665192,465.301941 386.013885,472.656982 
	C388.065491,472.656982 390.143494,472.656982 392.723877,472.656982 
	C392.828308,470.469269 392.943573,468.054688 393.058838,465.640076 
	C393.395081,465.307800 393.731354,464.975494 394.067627,464.643188 
	C394.992065,465.666656 396.649902,466.645874 396.714752,467.721161 
	C397.004791,472.531494 396.984772,477.376770 396.730408,482.191162 
	C396.673096,483.275696 395.226471,484.286835 394.419403,485.331757 
	C393.993835,485.066895 393.568268,484.802032 393.142700,484.537170 
	C393.004974,482.099426 392.867249,479.661682 392.712952,476.930389 
	C390.499603,476.930389 388.446594,476.930389 386.581146,476.930389 
	C384.308655,479.209229 388.411743,484.414398 381.918365,485.051117 
	C381.918365,481.978821 381.918365,479.216095 381.918365,475.964752 
z"/>
<path fill="#344772" opacity="1.000000" stroke="none" 
	d="
M370.790771,468.238403 
	C366.931122,469.495270 365.242493,473.894867 366.973419,478.870148 
	C367.482422,480.333130 369.996979,481.098389 372.386108,482.723236 
	C372.780212,479.374512 372.986938,477.617737 373.365936,474.397247 
	C374.852325,475.837677 376.543823,476.779572 376.460999,477.524139 
	C376.185394,480.002441 378.446747,483.441193 374.330688,484.751465 
	C367.062469,487.065186 362.834167,483.910919 362.815674,476.205292 
	C362.812469,474.874634 362.798096,473.543671 362.818207,472.213318 
	C362.912231,465.991455 369.202942,462.259247 374.762665,465.164215 
	C375.250732,465.419281 375.867371,466.147675 375.807861,466.569183 
	C375.708832,467.270599 375.197815,468.373962 374.703918,468.465668 
	C373.604034,468.669830 372.407471,468.353333 370.790771,468.238403 
z"/>
<path fill="#304470" opacity="1.000000" stroke="none" 
	d="
M160.866486,465.987457 
	C160.866486,468.473785 160.866486,470.960114 160.866486,473.788971 
	C165.511322,472.043121 164.474472,464.159149 172.259155,465.298279 
	C164.935455,471.914795 165.586746,478.317566 172.884186,484.622833 
	C164.810974,485.582855 165.495865,478.005585 161.138031,475.566406 
	C161.138031,478.567413 161.138031,481.435364 161.138031,485.851196 
	C159.186218,484.462006 157.298859,483.764740 157.268158,482.993561 
	C157.043701,477.357178 157.156204,471.705078 157.305313,466.061707 
	C157.314957,465.697357 158.513626,465.364471 159.684006,465.265900 
	C160.379379,465.740112 160.598602,465.897644 160.866486,465.987457 
z"/>
<path fill="#273C6A" opacity="1.000000" stroke="none" 
	d="
M95.019096,475.038391 
	C95.019035,478.481262 95.019035,481.445831 95.019035,484.410431 
	C94.529404,484.681610 94.039780,484.952789 93.550148,485.223969 
	C92.729698,484.100006 91.279533,483.017883 91.201569,481.844604 
	C90.916534,477.555328 91.088783,473.235657 91.088783,469.436646 
	C88.883415,468.351471 87.162056,467.504456 85.440689,466.657440 
	C85.656029,466.108276 85.871368,465.559082 86.086708,465.009918 
	C89.723892,465.009918 93.368454,464.879761 96.993973,465.085419 
	C98.153030,465.151154 99.261635,466.106506 100.393311,466.654846 
	C99.251144,467.227905 98.122337,467.830322 96.959816,468.358582 
	C96.530373,468.553711 96.021545,468.574127 95.019157,468.786377 
	C95.019157,470.689484 95.019157,472.624786 95.019096,475.038391 
z"/>
<path fill="#2F436E" opacity="1.000000" stroke="none" 
	d="
M257.169373,464.993103 
	C260.901733,464.992981 264.168518,464.992981 267.435303,464.992981 
	C267.617645,465.621643 267.799957,466.250336 267.982300,466.878998 
	C266.174835,467.630707 264.367401,468.382416 262.142822,469.307617 
	C262.142822,473.987457 262.142822,479.075775 262.142822,484.164062 
	C261.729279,484.490906 261.315735,484.817749 260.902191,485.144592 
	C259.993225,484.140961 258.374817,483.187347 258.299896,482.124847 
	C257.998749,477.855377 258.175293,473.552246 258.175293,469.548859 
	C256.195129,468.470764 254.544998,467.572327 252.894836,466.673889 
	C254.164490,466.113678 255.434158,465.553467 257.169373,464.993103 
z"/>
<path fill="#253A68" opacity="1.000000" stroke="none" 
	d="
M415.689972,467.540314 
	C413.930878,468.207092 412.335083,468.476471 410.355560,468.810608 
	C410.355560,473.995056 410.355560,479.074432 410.355560,484.095673 
	C406.553833,484.557007 406.554077,484.557007 406.555359,478.366516 
	C406.556000,475.254120 406.555481,472.141754 406.555481,469.359406 
	C404.214172,468.372437 402.422668,467.617249 400.631195,466.862061 
	C400.819977,466.249329 401.008759,465.636597 401.197540,465.023865 
	C405.458130,465.023865 409.722565,464.934143 413.975189,465.118469 
	C414.629242,465.146851 415.228607,466.436554 415.689972,467.540314 
z"/>
<path fill="#3C4F78" opacity="1.000000" stroke="none" 
	d="
M353.353241,482.404724 
	C353.344879,477.328430 353.185760,472.682983 353.449982,468.061768 
	C353.518890,466.856445 354.906433,465.726532 355.688324,464.562012 
	C356.142273,464.816559 356.596222,465.071136 357.050171,465.325684 
	C357.050171,471.709534 357.050171,478.093353 357.050171,485.989746 
	C355.269592,484.471985 354.315033,483.658325 353.353241,482.404724 
z"/>
<path fill="#2F436F" opacity="1.000000" stroke="none" 
	d="
M209.037109,473.050629 
	C209.037003,477.141205 209.037003,480.748840 209.037003,484.356476 
	C208.581741,484.645721 208.126495,484.934967 207.671234,485.224182 
	C206.819397,484.139282 205.297165,483.092804 205.232330,481.962738 
	C204.958603,477.191406 204.972137,472.387238 205.232071,467.614197 
	C205.291199,466.528290 206.752869,465.518768 207.568970,464.474091 
	C208.058380,464.732483 208.547791,464.990875 209.037201,465.249268 
	C209.037201,467.688751 209.037201,470.128204 209.037109,473.050629 
z"/>
<path fill="#213665" opacity="1.000000" stroke="none" 
	d="
M125.572464,468.437042 
	C126.219124,466.861572 126.865372,465.740051 127.511627,464.618500 
	C127.994347,464.841064 128.477066,465.063629 128.959778,465.286163 
	C128.959778,471.686920 128.959778,478.087646 128.959778,484.488373 
	C128.492935,484.723969 128.026077,484.959564 127.559235,485.195129 
	C126.897942,484.085205 125.726204,483.002106 125.666122,481.860535 
	C125.439148,477.547638 125.573151,473.215759 125.572464,468.437042 
z"/>
<path fill="#2F436F" opacity="1.000000" stroke="none" 
	d="
M160.890732,465.724823 
	C160.598602,465.897644 160.379379,465.740112 160.113342,465.333496 
	C160.316879,465.255524 160.615936,465.358856 160.890732,465.724823 
z"/>
<path fill="#FBFCFC" opacity="1.000000" stroke="none" 
	d="
M395.246216,400.321289 
	C400.230072,402.452667 401.777740,407.522583 400.232727,414.876373 
	C399.266174,419.476776 395.954010,420.284027 392.028442,420.274811 
	C389.426056,420.268707 386.823669,420.273651 384.012939,420.273651 
	C384.012939,413.357758 384.012939,407.126251 384.012939,400.219299 
	C387.678680,400.219299 391.251068,400.219299 395.246216,400.321289 
z"/>
<path fill="#E5E8ED" opacity="1.000000" stroke="none" 
	d="
M336.794495,474.446686 
	C336.546509,472.355408 336.546509,470.598907 336.546509,467.868408 
	C339.015076,468.478851 341.136444,468.583618 342.682983,469.580292 
	C343.357056,470.014740 343.342957,473.251831 342.791351,473.529968 
	C341.095703,474.384766 338.989258,474.424774 336.794495,474.446686 
z"/>
<path fill="#ECEEF2" opacity="1.000000" stroke="none" 
	d="
M188.126892,470.402954 
	C190.082245,469.636932 192.032104,469.079987 193.962250,469.141541 
	C194.321915,469.153015 195.250046,472.508728 194.804153,472.844391 
	C193.123367,474.109741 190.983734,474.765564 188.114609,476.054504 
	C188.114609,473.353027 188.114609,472.089325 188.126892,470.402954 
z"/>
<path fill="#F2F4F6" opacity="1.000000" stroke="none" 
	d="
M308.770508,479.431580 
	C308.638153,476.515656 308.225372,473.943573 308.739899,471.572815 
	C309.027588,470.247406 311.058167,468.186401 311.941498,468.354828 
	C313.413391,468.635437 315.132782,470.211792 315.751404,471.666351 
	C316.409882,473.214478 316.153625,475.298187 315.840698,477.067413 
	C315.581970,478.530273 314.857544,480.880890 313.986816,481.052917 
	C312.423370,481.361725 310.595245,480.330750 308.770508,479.431580 
z"/>
<path fill="#FBFCFC" opacity="1.000000" stroke="none" 
	d="
M292.737244,481.263580 
	C291.459656,480.572021 290.002655,479.892944 289.943542,479.108582 
	C289.685211,475.679535 289.832367,472.220001 289.832367,467.106201 
	C292.548401,468.798004 295.731415,470.017303 295.633698,470.852905 
	C295.225922,474.339050 298.612579,478.955658 292.737244,481.263580 
z"/>
</svg>